<svg width="586" height="240" viewBox="0 0 586 240" fill="none" xmlns="http://www.w3.org/2000/svg">
<path d="M194.141 0L179.083 72.0038L116.598 84.0029L124.127 47.9962H100.129L90.0939 96.0019H174.061L143.936 240H0L10.035 192.004H94.0019L104.047 143.998H80.0494L75.0363 168.006L12.5509 180.005L50.1947 0H194.141Z" fill="#111111"/>
<path d="M218.392 0H238.349L234.887 16.5833H250.742C252.738 16.5833 254.211 17.2359 255.161 18.5411C256.112 19.7695 256.357 21.4201 255.896 23.493L244.481 77.1585C244.021 79.2314 243.046 80.9205 241.557 82.2256C240.069 83.454 238.327 84.0682 236.331 84.0682H200.519L218.392 0ZM231.429 32.706L223.934 67.9455H224.599C225.856 67.9455 226.6 67.293 226.833 65.9878L233.52 34.6637C233.752 33.3586 233.277 32.706 232.094 32.706H231.429Z" fill="url(#paint0_linear_165_238)"/>
<path d="M288.35 84.0682H252.538C250.542 84.0682 249.069 83.454 248.118 82.2256C247.168 80.9205 246.923 79.2314 247.384 77.1585L260.297 16.5833H280.254L269.649 65.9878C269.417 67.293 269.929 67.9455 271.186 67.9455H271.851L282.804 16.5833H302.761L288.35 84.0682Z" fill="url(#paint1_linear_165_238)"/>
<path d="M303.209 59.0781C301.213 59.0781 299.74 58.4639 298.789 57.2355C297.839 55.9303 297.594 54.2413 298.055 52.1684L304.165 23.493C304.552 21.4201 305.489 19.7695 306.978 18.5411C308.541 17.2359 310.32 16.5833 312.316 16.5833H341.475C343.471 16.5833 344.944 17.2359 345.894 18.5411C346.845 19.7695 347.09 21.4201 346.629 23.493L343.401 38.6944H323.444L324.367 34.2031C324.522 33.3586 324.156 32.9363 323.269 32.9363C322.53 32.9363 322.046 33.3586 321.817 34.2031L320.78 39.0399C320.546 40.5754 321.131 41.3431 322.535 41.3431H336.172C338.168 41.3431 339.641 41.9957 340.591 43.3009C341.542 44.5293 341.787 46.1799 341.327 48.2529L335.214 77.1585C334.754 79.2314 333.779 80.9205 332.29 82.2256C330.802 83.454 329.06 84.0682 327.064 84.0682H297.905C295.909 84.0682 294.436 83.454 293.485 82.2256C292.535 80.9205 292.29 79.2314 292.75 77.1585L295.981 61.7268H315.938L315.014 66.2181C314.859 67.0626 315.225 67.4849 316.112 67.4849C316.852 67.4849 317.335 67.0626 317.564 66.2181L318.602 61.3813C318.836 59.8458 318.251 59.0781 316.846 59.0781H303.209Z" fill="url(#paint2_linear_165_238)"/>
<path d="M352.068 11.6314L372.488 9.32811L370.987 16.5833H375.533L371.039 37.3125H366.493L361.532 61.0358C361.15 62.5713 361.698 63.3391 363.176 63.3391H365.504L361.122 84.0682H343.271C341.276 84.0682 339.802 83.454 338.851 82.2256C337.901 80.9205 337.656 79.2314 338.117 77.1585L352.068 11.6314Z" fill="url(#paint3_linear_165_238)"/>
<path d="M381.885 0H401.842L398.845 13.9346H378.888L381.885 0ZM378.423 16.5833H398.38L383.969 84.0682H364.012L378.423 16.5833Z" fill="url(#paint4_linear_165_238)"/>
<path d="M429.322 84.0682H393.51C391.514 84.0682 390.041 83.454 389.09 82.2256C388.14 80.9205 387.895 79.2314 388.356 77.1585L401.269 16.5833H421.226L410.621 65.9878C410.389 67.293 410.901 67.9455 412.158 67.9455H412.823L423.776 16.5833H443.733L429.322 84.0682Z" fill="url(#paint5_linear_165_238)"/>
<path d="M464.354 32.706C463.984 32.706 463.651 32.8212 463.353 33.0515C463.056 33.2818 462.868 33.5889 462.791 33.9728L455.871 66.6788C455.717 67.5233 456.083 67.9455 456.97 67.9455C457.783 67.9455 458.267 67.5233 458.421 66.6788L462.11 49.5196H482.067L476.186 77.1585C475.726 79.2314 474.751 80.9205 473.262 82.2256C471.774 83.454 470.032 84.0682 468.036 84.0682H438.877C436.881 84.0682 435.408 83.454 434.457 82.2256C433.507 80.9205 433.262 79.2314 433.722 77.1585L445.137 23.493C445.598 21.4201 446.572 19.7695 448.061 18.5411C449.55 17.2359 451.292 16.5833 453.288 16.5833H482.447C484.443 16.5833 485.916 17.2359 486.866 18.5411C487.817 19.7695 488.062 21.4201 487.601 23.493L482.643 46.8709H462.686L465.341 33.9728C465.496 33.1283 465.204 32.706 464.465 32.706H464.354Z" fill="url(#paint6_linear_165_238)"/>
<path d="M194.558 165.06C191.231 165.06 188.767 164.063 187.165 162.07C185.563 159.952 185.131 157.211 185.871 153.847L195.667 107.313C196.283 103.949 197.823 101.27 200.288 99.2769C202.875 97.1589 205.833 96.0999 209.16 96.0999H257.771C261.098 96.0999 263.562 97.1589 265.164 99.2769C266.766 101.27 267.197 103.949 266.458 107.313L261.282 131.981H228.013L229.491 124.693C229.738 123.323 229.122 122.637 227.643 122.637C226.411 122.637 225.61 123.323 225.24 124.693L223.577 132.542C223.207 135.034 224.193 136.28 226.534 136.28H249.268C252.595 136.28 255.06 137.339 256.662 139.457C258.264 141.45 258.695 144.129 257.955 147.493L248.159 194.4C247.42 197.764 245.818 200.505 243.354 202.623C240.889 204.617 237.994 205.613 234.667 205.613H186.056C182.729 205.613 180.264 204.617 178.662 202.623C177.06 200.505 176.629 197.764 177.369 194.4L182.544 169.358H215.814L214.335 176.647C214.089 178.017 214.705 178.702 216.183 178.702C217.416 178.702 218.216 178.017 218.586 176.647L220.25 168.797C220.619 166.306 219.634 165.06 217.292 165.06H194.558Z" fill="#111111"/>
<path d="M329.519 166.929L323.789 194.4C323.05 197.764 321.448 200.505 318.983 202.623C316.519 204.617 313.623 205.613 310.296 205.613H261.685C258.358 205.613 255.894 204.617 254.292 202.623C252.69 200.505 252.259 197.764 252.998 194.4L271.297 107.313C272.036 103.949 273.638 101.27 276.102 99.2769C278.567 97.1589 281.462 96.0999 284.789 96.0999H333.4C336.727 96.0999 339.13 97.1589 340.609 99.2769C342.211 101.27 342.704 103.949 342.087 107.313L330.443 162.63H292.922L289.78 177.394C289.533 178.765 290.15 179.45 291.628 179.45C292.984 179.45 293.785 178.765 294.031 177.394L296.249 166.929H329.519ZM303.457 122.264C302.841 122.264 302.287 122.45 301.794 122.824C301.301 123.198 300.993 123.696 300.87 124.319L298.467 136.467H302.718L305.121 124.319C305.367 123.696 305.306 123.198 304.936 122.824C304.69 122.45 304.258 122.264 303.642 122.264H303.457Z" fill="#111111"/>
<path d="M349.329 96.0999H382.599L380.936 103.388C382.045 101.146 383.646 99.4015 385.741 98.1556C387.959 96.7851 390.424 96.0999 393.134 96.0999H396.646L389.438 129.739H375.391L359.495 205.613H326.225L349.329 96.0999Z" fill="#111111"/>
<path d="M410.735 209.912L410.366 211.781C410.119 213.151 410.674 213.836 412.029 213.836C413.385 213.836 414.247 213.151 414.617 211.781L415.911 205.613H389.48C386.153 205.613 383.688 204.617 382.086 202.623C380.485 200.505 380.053 197.764 380.793 194.4L399.091 107.313C399.707 103.949 401.247 101.27 403.712 99.2769C406.299 97.1589 409.257 96.0999 412.584 96.0999H472.285L444.375 228.787C443.636 232.151 442.034 234.83 439.569 236.823C437.105 238.941 434.209 240 430.882 240H382.271C378.944 240 376.48 238.941 374.878 236.823C373.276 234.83 372.845 232.151 373.584 228.787L377.466 209.912H410.735ZM432.915 124.319C433.162 123.572 433.1 123.073 432.73 122.824C432.361 122.45 431.93 122.264 431.437 122.264C430.821 122.264 430.266 122.45 429.773 122.824C429.28 123.073 428.911 123.572 428.664 124.319L417.574 177.207C417.451 177.83 417.574 178.329 417.944 178.702C418.314 179.076 418.806 179.263 419.423 179.263C419.915 179.263 420.408 179.076 420.901 178.702C421.394 178.329 421.702 177.83 421.825 177.207L432.915 124.319Z" fill="#111111"/>
<path d="M477.124 96.0999H510.393L487.289 205.613H454.019L477.124 96.0999Z" fill="#111111"/>
<path d="M562.896 205.613H503.195C499.868 205.613 497.404 204.617 495.802 202.623C494.2 200.505 493.769 197.764 494.508 194.4L515.209 96.0999H548.479L531.474 176.273C531.105 178.391 531.967 179.45 534.062 179.45H535.171L552.73 96.0999H586L562.896 205.613Z" fill="#111111"/>
<path d="M517.536 61.4582H484.267L479.461 84.071H512.731L517.536 61.4582Z" fill="#111111"/>
<defs>
<linearGradient id="paint0_linear_165_238" x1="293" y1="0" x2="293" y2="240" gradientUnits="userSpaceOnUse">
<stop stop-color="#252525"/>
<stop offset="1" stop-color="#454545"/>
</linearGradient>
<linearGradient id="paint1_linear_165_238" x1="293" y1="0" x2="293" y2="240" gradientUnits="userSpaceOnUse">
<stop stop-color="#252525"/>
<stop offset="1" stop-color="#454545"/>
</linearGradient>
<linearGradient id="paint2_linear_165_238" x1="293" y1="0" x2="293" y2="240" gradientUnits="userSpaceOnUse">
<stop stop-color="#252525"/>
<stop offset="1" stop-color="#454545"/>
</linearGradient>
<linearGradient id="paint3_linear_165_238" x1="293" y1="0" x2="293" y2="240" gradientUnits="userSpaceOnUse">
<stop stop-color="#252525"/>
<stop offset="1" stop-color="#454545"/>
</linearGradient>
<linearGradient id="paint4_linear_165_238" x1="293" y1="0" x2="293" y2="240" gradientUnits="userSpaceOnUse">
<stop stop-color="#252525"/>
<stop offset="1" stop-color="#454545"/>
</linearGradient>
<linearGradient id="paint5_linear_165_238" x1="293" y1="0" x2="293" y2="240" gradientUnits="userSpaceOnUse">
<stop stop-color="#252525"/>
<stop offset="1" stop-color="#454545"/>
</linearGradient>
<linearGradient id="paint6_linear_165_238" x1="293" y1="0" x2="293" y2="240" gradientUnits="userSpaceOnUse">
<stop stop-color="#252525"/>
<stop offset="1" stop-color="#454545"/>
</linearGradient>
</defs>
</svg>
