<svg width="410" height="240" viewBox="0 0 410 240" fill="none" xmlns="http://www.w3.org/2000/svg">
<path d="M41.4768 0H61.4834L58.013 16.5833H73.9072C75.9078 16.5833 77.3844 17.2359 78.337 18.5411C79.2902 19.7695 79.5361 21.4201 79.0745 23.493L67.6307 77.1585C67.1691 79.2314 66.192 80.9205 64.6993 82.2256C63.2073 83.454 61.4609 84.0682 59.4603 84.0682H23.5595L41.4768 0ZM54.5464 32.706L47.0327 67.9455H47.6996C48.9593 67.9455 49.7056 67.293 49.9386 65.9878L56.6421 34.6637C56.8751 33.3586 56.3988 32.706 55.2132 32.706H54.5464Z" fill="url(#paint0_linear_279_61)"/>
<path d="M111.609 84.0682H75.7078C73.7072 84.0682 72.2302 83.454 71.277 82.2256C70.3244 80.9205 70.079 79.2314 70.5405 77.1585L83.4859 16.5833H103.493L92.8618 65.9878C92.6288 67.293 93.1421 67.9455 94.4018 67.9455H95.0687L106.049 16.5833H126.056L111.609 84.0682Z" fill="url(#paint1_linear_279_61)"/>
<path d="M126.505 59.0781C124.504 59.0781 123.027 58.4639 122.074 57.2355C121.122 55.9303 120.876 54.2413 121.338 52.1684L127.464 23.493C127.851 21.4201 128.791 19.7695 130.283 18.5411C131.85 17.2359 133.634 16.5833 135.634 16.5833H164.866C166.867 16.5833 168.343 17.2359 169.296 18.5411C170.249 19.7695 170.495 21.4201 170.033 23.493L166.797 38.6944H146.79L147.716 34.2031C147.871 33.3586 147.504 32.9363 146.615 32.9363C145.874 32.9363 145.389 33.3586 145.16 34.2031L144.12 39.0399C143.885 40.5754 144.471 41.3431 145.879 41.3431H159.55C161.551 41.3431 163.028 41.9957 163.98 43.3009C164.933 44.5293 165.179 46.1799 164.718 48.2529L158.59 77.1585C158.128 79.2314 157.151 80.9205 155.658 82.2256C154.166 83.454 152.42 84.0682 150.419 84.0682H121.187C119.187 84.0682 117.71 83.454 116.757 82.2256C115.804 80.9205 115.558 79.2314 116.02 77.1585L119.259 61.7268H139.265L138.339 66.2181C138.184 67.0626 138.551 67.4849 139.44 67.4849C140.181 67.4849 140.667 67.0626 140.896 66.2181L141.936 61.3813C142.171 59.8458 141.584 59.0781 140.176 59.0781H126.505Z" fill="url(#paint2_linear_279_61)"/>
<path d="M175.486 11.6314L195.956 9.32811L194.452 16.5833H199.009L194.504 37.3125H189.947L184.973 61.0358C184.59 62.5713 185.139 63.3391 186.621 63.3391H188.955L184.562 84.0682H166.667C164.666 84.0682 163.189 83.454 162.236 82.2256C161.283 80.9205 161.038 79.2314 161.5 77.1585L175.486 11.6314Z" fill="url(#paint3_linear_279_61)"/>
<path d="M205.377 0H225.383L222.379 13.9346H202.373L205.377 0ZM201.906 16.5833H221.913L207.466 84.0682H187.459L201.906 16.5833Z" fill="url(#paint4_linear_279_61)"/>
<path d="M252.932 84.0682H217.031C215.03 84.0682 213.553 83.454 212.6 82.2256C211.647 80.9205 211.402 79.2314 211.864 77.1585L224.809 16.5833H244.815L234.185 65.9878C233.952 67.293 234.465 67.9455 235.725 67.9455H236.392L247.372 16.5833H267.378L252.932 84.0682Z" fill="url(#paint5_linear_279_61)"/>
<path d="M288.051 32.706C287.68 32.706 287.346 32.8212 287.048 33.0515C286.749 33.2818 286.562 33.5889 286.484 33.9728L279.547 66.6788C279.392 67.5233 279.759 67.9455 280.648 67.9455C281.464 67.9455 281.949 67.5233 282.104 66.6788L285.801 49.5196H305.808L299.913 77.1585C299.451 79.2314 298.474 80.9205 296.981 82.2256C295.489 83.454 293.743 84.0682 291.742 84.0682H262.51C260.51 84.0682 259.033 83.454 258.079 82.2256C257.127 80.9205 256.881 79.2314 257.343 77.1585L268.787 23.493C269.248 21.4201 270.225 19.7695 271.717 18.5411C273.21 17.2359 274.957 16.5833 276.957 16.5833H306.189C308.19 16.5833 309.666 17.2359 310.619 18.5411C311.572 19.7695 311.818 21.4201 311.356 23.493L306.385 46.8709H286.379L289.041 33.9728C289.196 33.1283 288.903 32.706 288.162 32.706H288.051Z" fill="url(#paint6_linear_279_61)"/>
<path d="M17.5833 165.06C14.248 165.06 11.7775 164.063 10.1716 162.07C8.56572 159.952 8.13337 157.211 8.87455 153.847L18.6951 107.313C19.3127 103.949 20.8568 101.27 23.3274 99.2769C25.9215 97.1589 28.8862 96.0999 32.2214 96.0999H80.9534C84.2887 96.0999 86.7592 97.1589 88.3651 99.2769C89.971 101.27 90.4033 103.949 89.6622 107.313L84.474 131.981H51.1213L52.6036 124.693C52.8507 123.323 52.233 122.637 50.7507 122.637C49.5154 122.637 48.7125 123.323 48.3419 124.693L46.6743 132.542C46.3037 135.034 47.2919 136.28 49.6389 136.28H72.4299C75.7652 136.28 78.2358 137.339 79.8416 139.457C81.4475 141.45 81.8799 144.129 81.1387 147.493L71.3182 194.4C70.577 197.764 68.9711 200.505 66.5006 202.623C64.03 204.617 61.1271 205.613 57.7918 205.613H9.05984C5.72457 205.613 3.254 204.617 1.64813 202.623C0.0422561 200.505 -0.390089 197.764 0.351082 194.4L5.53927 169.358H38.892L37.4096 176.647C37.1626 178.017 37.7802 178.702 39.2625 178.702C40.4978 178.702 41.3008 178.017 41.6714 176.647L43.339 168.797C43.7096 166.306 42.7214 165.06 40.3743 165.06H17.5833Z" fill="#111111"/>
<path d="M152.88 166.929L147.136 194.4C146.395 197.764 144.789 200.505 142.319 202.623C139.848 204.617 136.945 205.613 133.61 205.613H84.8779C81.5426 205.613 79.072 204.617 77.4661 202.623C75.8603 200.505 75.4279 197.764 76.1691 194.4L94.5131 107.313C95.2542 103.949 96.8601 101.27 99.3307 99.2769C101.801 97.1589 104.704 96.0999 108.039 96.0999H156.771C160.107 96.0999 162.516 97.1589 163.998 99.2769C165.604 101.27 166.098 103.949 165.48 107.313L153.807 162.63H116.192L113.042 177.394C112.795 178.765 113.413 179.45 114.895 179.45C116.254 179.45 117.057 178.765 117.304 177.394L119.528 166.929H152.88ZM126.754 122.264C126.136 122.264 125.58 122.45 125.086 122.824C124.592 123.198 124.283 123.696 124.16 124.319L121.751 136.467H126.013L128.422 124.319C128.669 123.696 128.607 123.198 128.236 122.824C127.989 122.45 127.557 122.264 126.939 122.264H126.754Z" fill="#111111"/>
<path d="M172.74 96.0999H206.093L204.425 103.388C205.537 101.146 207.143 99.4015 209.243 98.1556C211.466 96.7851 213.937 96.0999 216.654 96.0999H220.175L212.948 129.739H198.866L182.931 205.613H149.578L172.74 96.0999Z" fill="#111111"/>
<path d="M234.299 209.912L233.928 211.781C233.681 213.151 234.237 213.836 235.596 213.836C236.955 213.836 237.82 213.151 238.19 211.781L239.487 205.613H212.99C209.655 205.613 207.185 204.617 205.579 202.623C203.973 200.505 203.54 197.764 204.282 194.4L222.626 107.313C223.243 103.949 224.787 101.27 227.258 99.2769C229.852 97.1589 232.817 96.0999 236.152 96.0999H296.002L268.022 228.787C267.281 232.151 265.675 234.83 263.205 236.823C260.734 238.941 257.831 240 254.496 240H205.764C202.429 240 199.958 238.941 198.352 236.823C196.746 234.83 196.314 232.151 197.055 228.787L200.946 209.912H234.299ZM256.534 124.319C256.781 123.572 256.719 123.073 256.349 122.824C255.978 122.45 255.546 122.264 255.052 122.264C254.434 122.264 253.878 122.45 253.384 122.824C252.89 123.073 252.519 123.572 252.272 124.319L241.155 177.207C241.031 177.83 241.155 178.329 241.525 178.702C241.896 179.076 242.39 179.263 243.008 179.263C243.502 179.263 243.996 179.076 244.49 178.702C244.984 178.329 245.293 177.83 245.417 177.207L256.534 124.319Z" fill="#111111"/>
<path d="M300.852 96.0999H334.205L311.044 205.613H277.691L300.852 96.0999Z" fill="#111111"/>
<path d="M386.838 205.613H326.989C323.654 205.613 321.183 204.617 319.577 202.623C317.971 200.505 317.539 197.764 318.28 194.4L339.033 96.0999H372.386L355.339 176.273C354.968 178.391 355.833 179.45 357.933 179.45H359.044L376.647 96.0999H410L386.838 205.613Z" fill="#111111"/>
<path d="M341.366 61.4582H308.013L303.196 84.071H336.548L341.366 61.4582Z" fill="#111111"/>
<defs>
<linearGradient id="paint0_linear_279_61" x1="205" y1="0" x2="205" y2="240" gradientUnits="userSpaceOnUse">
<stop stop-color="#252525"/>
<stop offset="1" stop-color="#454545"/>
</linearGradient>
<linearGradient id="paint1_linear_279_61" x1="205" y1="0" x2="205" y2="240" gradientUnits="userSpaceOnUse">
<stop stop-color="#252525"/>
<stop offset="1" stop-color="#454545"/>
</linearGradient>
<linearGradient id="paint2_linear_279_61" x1="205" y1="0" x2="205" y2="240" gradientUnits="userSpaceOnUse">
<stop stop-color="#252525"/>
<stop offset="1" stop-color="#454545"/>
</linearGradient>
<linearGradient id="paint3_linear_279_61" x1="205" y1="0" x2="205" y2="240" gradientUnits="userSpaceOnUse">
<stop stop-color="#252525"/>
<stop offset="1" stop-color="#454545"/>
</linearGradient>
<linearGradient id="paint4_linear_279_61" x1="205" y1="0" x2="205" y2="240" gradientUnits="userSpaceOnUse">
<stop stop-color="#252525"/>
<stop offset="1" stop-color="#454545"/>
</linearGradient>
<linearGradient id="paint5_linear_279_61" x1="205" y1="0" x2="205" y2="240" gradientUnits="userSpaceOnUse">
<stop stop-color="#252525"/>
<stop offset="1" stop-color="#454545"/>
</linearGradient>
<linearGradient id="paint6_linear_279_61" x1="205" y1="0" x2="205" y2="240" gradientUnits="userSpaceOnUse">
<stop stop-color="#252525"/>
<stop offset="1" stop-color="#454545"/>
</linearGradient>
</defs>
</svg>
