<svg width="12" height="13" viewBox="0 0 12 13" fill="none" xmlns="http://www.w3.org/2000/svg">
<path d="M4.5 5.60788C4.56185 5.5816 4.61039 5.51524 4.65753 5.46667C4.74276 5.37886 4.82928 5.29261 4.9191 5.21052C5.18559 4.96694 5.46965 4.74776 5.73648 4.50448C5.91943 4.33768 6.06432 4.14426 6.23137 3.96099C6.34261 3.83895 6.47578 3.75007 6.58656 3.62767C6.62781 3.5821 6.68895 3.5405 6.72106 3.48728C6.7656 3.41347 6.74595 3.54311 6.74409 3.5702C6.72598 3.8344 6.66491 4.09402 6.61331 4.35178C6.50621 4.88678 6.42492 5.42899 6.325 5.96582C6.23103 6.47067 6.13213 6.97347 6.06566 7.48382C6.04174 7.66755 6.04102 7.85806 6.01068 8.03962C5.97982 8.22432 5.97717 8.40345 5.96981 8.5905C5.96437 8.72873 5.93349 8.86152 5.93117 9.00017C5.92855 9.15647 5.87767 9.30863 5.87767 9.46484" stroke="black" stroke-width="0.981081" stroke-linecap="round"/>
<path d="M8.23931 9.25528C8.03245 9.39682 8.32427 9.47833 8.44711 9.4169C8.5498 9.36556 8.60464 9.22464 8.44567 9.20477C8.35849 9.19387 8.13582 9.21391 8.22921 9.35918C8.30518 9.47735 8.45973 9.35918 8.34321 9.35918" stroke="black" stroke-width="0.981081" stroke-linecap="round"/>
</svg>
