<svg width="96" height="102" viewBox="0 0 96 102" fill="none" xmlns="http://www.w3.org/2000/svg">
<path id="Vector" d="M4.54772 73.9321C9.0185 70.5312 12.6884 66.8249 16.4275 62.6738C20.1774 58.5107 23.9263 54.3366 26.9515 49.5932C28.5691 47.057 30.4792 44.7419 32.5202 42.5324C33.5495 41.418 33.8031 41.7447 34.9575 42.5324C37.4984 44.266 40.4499 45.3647 42.9796 47.1366C45.5774 48.9562 48.2391 51.2269 50.4852 53.4653C53.2551 56.2259 55.2572 59.4812 57.7164 62.446C59.7698 64.9216 60.7993 64.3103 62.4941 61.7952C64.6937 58.5313 67.2968 55.6275 69.9997 52.782C70.6081 52.1416 71.8702 50.0789 72.8244 49.9186C73.7656 49.7605 74.0136 50.0375 74.9228 50.8622C77.0123 52.7578 79.0362 54.6304 80.9272 56.7192C83.1131 59.1338 85.2345 61.8952 87.771 63.9265C89.2267 65.0922 90.8145 66.0556 92 67.4895M55.9731 21.8052C54.9914 20.0736 51.9637 24.5617 51.6151 25.1893C50.3645 27.4402 50.8102 30.7468 52.4867 32.6243C55.3669 35.85 61.1536 35.4789 62.6555 31.1764C63.7697 27.9847 63.0399 25.5488 61.0576 23.1068C59.8755 21.6506 57.7321 21.5124 55.9731 21.5124M4.41859 62.7877C5.51262 45.4448 6.90606 12.1051 7.10934 7.19136C7.12396 6.83802 7.39246 6.58321 7.74608 6.58656C12.5922 6.63241 45.0415 6.88742 61.9292 5.68233C70.5078 5.07017 79.1009 4.68625 87.6742 4.00659C89.3981 3.86992 88.5814 5.88981 88.3683 7.17911C88.0841 8.89744 88.223 10.6965 88.223 12.4341V27.9713C88.223 35.2129 88.0754 42.4529 88.9332 49.6583C89.6717 55.8611 90.4891 61.9084 90.5473 68.1728C90.596 73.4138 90.6636 78.5799 91.2575 83.7914C91.6566 87.2935 91.7692 90.691 91.2736 94.1875C91.1471 95.0806 91.0546 96.3896 90.5312 97.181C90.2468 97.6109 88.7597 97.3473 88.223 97.5878C87.9052 97.7301 87.4624 97.6528 87.1254 97.6528H77.9895C59.9745 97.6528 41.9641 97.9457 23.9493 97.9457H6.90431C6.71596 97.9457 5.22939 98.1498 5.14493 97.7667C4.57265 95.171 4.75938 92.3163 4.54771 89.6809C3.82751 80.7136 3.8525 71.7614 4.41859 62.7877Z" stroke="#9F9F9F" stroke-width="7.84865" stroke-linecap="round"/>
</svg>
