<svg width="68" height="68" viewBox="0 0 68 68" fill="none" xmlns="http://www.w3.org/2000/svg">
<path d="M40.1268 66L14.5251 2H33.7266L59.329 66H40.1268Z" fill="#FFFDFF"/>
<path d="M6.83555 21.2L2 40.5307L35.7341 63.0183L19.0055 21.2H6.83555Z" fill="#FFFDFF"/>
<path d="M66 21.3115L61.2367 40.4H52.288L37.9105 4.45894L66 21.3115Z" fill="#FFFDFF"/>
<path d="M40.1268 66L14.5251 2H33.7266L59.329 66H40.1268Z" stroke="black" stroke-width="3"/>
<path d="M6.83555 21.2L2 40.5307L35.7341 63.0183L19.0055 21.2H6.83555Z" stroke="black" stroke-width="3"/>
<path d="M66 21.3115L61.2367 40.4H52.288L37.9105 4.45894L66 21.3115Z" stroke="black" stroke-width="3"/>
<path d="M40.1268 66L14.5251 2H33.7266L59.329 66H40.1268Z" fill="#FFFDFF"/>
<path d="M6.83555 21.2L2 40.5307L35.7341 63.0183L19.0055 21.2H6.83555Z" fill="#FFFDFF"/>
<path d="M66 21.3115L61.2367 40.4H52.288L37.9105 4.45894L66 21.3115Z" fill="#FFFDFF"/>
</svg>
