<svg width="188" height="48" viewBox="0 0 188 48" fill="none" xmlns="http://www.w3.org/2000/svg">
<path d="M56.4429 0H66.2145L64.2362 8.10367H71.9992C72.9763 8.10367 73.6864 8.42256 74.1294 9.06035C74.5739 9.66062 74.6658 10.4672 74.4049 11.4802L67.899 37.7046C67.6381 38.7175 67.132 39.5429 66.3807 40.1807C65.6309 40.781 64.7675 41.0811 63.7903 41.0811H46.2558L56.4429 0ZM62.2676 15.9822L57.9959 33.2025H58.3216C58.9369 33.2025 59.3126 32.8836 59.4487 32.2459L63.2578 16.9389C63.3939 16.3011 63.1724 15.9822 62.5934 15.9822H62.2676Z" fill="#2D2D2D"/>
<path d="M89.2605 41.0811H71.7259C70.7488 41.0811 70.0379 40.781 69.5933 40.1807C69.1504 39.5429 69.0593 38.7175 69.3202 37.7046L76.6776 8.10367H86.4492L80.413 32.2459C80.2769 32.8836 80.5165 33.2025 81.1318 33.2025H81.4575L87.6977 8.10367H97.4693L89.2605 41.0811Z" fill="#2D2D2D"/>
<path d="M96.963 28.8693C95.9859 28.8693 95.275 28.5692 94.8304 27.9689C94.3874 27.3311 94.2964 26.5058 94.5572 25.4928L98.0391 11.4802C98.2638 10.4672 98.751 9.66062 99.5007 9.06035C100.288 8.42256 101.171 8.10367 102.148 8.10367H116.425C117.402 8.10367 118.112 8.42256 118.555 9.06035C119 9.66062 119.092 10.4672 118.831 11.4802L116.99 18.9086H107.219L107.748 16.7138C107.838 16.3011 107.666 16.0948 107.232 16.0948C106.87 16.0948 106.625 16.3011 106.499 16.7138L105.909 19.0774C105.768 19.8277 106.041 20.2029 106.729 20.2029H113.406C114.383 20.2029 115.093 20.5218 115.536 21.1596C115.981 21.7599 116.072 22.5665 115.812 23.5794L112.325 37.7046C112.064 38.7175 111.558 39.5429 110.807 40.1807C110.057 40.781 109.193 41.0811 108.216 41.0811H93.9389C92.9617 41.0811 92.2509 40.781 91.8063 40.1807C91.3633 39.5429 91.2723 38.7175 91.5331 37.7046L93.3785 30.1637H103.15L102.621 32.3584C102.531 32.7711 102.703 32.9774 103.137 32.9774C103.499 32.9774 103.743 32.7711 103.87 32.3584L104.46 29.9948C104.601 29.2445 104.328 28.8693 103.64 28.8693H96.963Z" fill="#2D2D2D"/>
<path d="M121.696 5.68382L131.734 4.55831L130.875 8.10367H133.101L130.547 18.2333H128.321L125.486 29.826C125.273 30.5763 125.528 30.9515 126.252 30.9515H127.392L124.892 41.0811H116.152C115.175 41.0811 114.464 40.781 114.019 40.1807C113.576 39.5429 113.485 38.7175 113.746 37.7046L121.696 5.68382Z" fill="#2D2D2D"/>
<path d="M134.516 8.10367H144.288L136.079 41.0811H126.307L134.516 8.10367Z" fill="#2D2D2D"/>
<path d="M158.285 41.0811H140.75C139.773 41.0811 139.062 40.781 138.618 40.1807C138.175 39.5429 138.084 38.7175 138.345 37.7046L145.702 8.10367H155.474L149.438 32.2459C149.301 32.8836 149.541 33.2025 150.156 33.2025H150.482L156.722 8.10367H166.494L158.285 41.0811Z" fill="#2D2D2D"/>
<path d="M176.315 15.9822C176.134 15.9822 175.969 16.0385 175.819 16.1511C175.67 16.2636 175.573 16.4137 175.528 16.6013L171.582 32.5835C171.491 32.9962 171.663 33.2025 172.098 33.2025C172.496 33.2025 172.74 32.9962 172.83 32.5835L174.929 24.1985H184.701L181.349 37.7046C181.089 38.7175 180.582 39.5429 179.831 40.1807C179.081 40.781 178.218 41.0811 177.241 41.0811H162.963C161.986 41.0811 161.275 40.781 160.831 40.1807C160.388 39.5429 160.297 38.7175 160.558 37.7046L167.064 11.4802C167.324 10.4672 167.83 9.66062 168.579 9.06035C169.331 8.42256 170.195 8.10367 171.172 8.10367H185.45C186.427 8.10367 187.137 8.42256 187.58 9.06035C188.024 9.66062 188.116 10.4672 187.855 11.4802L185.028 22.9041H175.256L176.777 16.6013C176.867 16.1886 176.731 15.9822 176.369 15.9822H176.315Z" fill="#2D2D2D"/>
<path d="M24.5549 41.0811L8.06659 0H20.4329L36.9217 41.0811H24.5549Z" fill="#2D2D2D"/>
<path d="M3.11425 12.3243L0 24.7325L21.7258 39.1672L10.9521 12.3243H3.11425Z" fill="#2D2D2D"/>
<path d="M41.218 12.3959L38.1503 24.6487H32.3871L23.1275 1.57837L41.218 12.3959Z" fill="#2D2D2D"/>
<path d="M146.266 0H136.494L134.789 6.80933H144.561L146.266 0Z" fill="#2D2D2D"/>
<path d="M104.682 42.3679H97.682V48H102.165L104.682 42.3679Z" fill="#2D2D2D"/>
</svg>
