<svg width="98" height="40" viewBox="0 0 98 40" fill="none" xmlns="http://www.w3.org/2000/svg">
<path d="M32.4672 0L29.949 12.0006L19.4993 14.0005L20.7584 7.99937H16.7452L15.0669 16.0003H29.1091L24.0713 40H0L1.67821 32.0006H15.7204L17.4003 23.9997H13.3871L12.5487 28.0009L2.09896 30.0008L8.39434 0H32.4672Z" fill="#111111"/>
<path d="M36.5229 0H39.8604L39.2815 2.76389H41.9329C42.2667 2.76389 42.513 2.87265 42.6719 3.09018C42.831 3.29491 42.872 3.57002 42.795 3.91551L40.8859 12.8597C40.8089 13.2052 40.6459 13.4867 40.3969 13.7043C40.148 13.909 39.8567 14.0114 39.5229 14.0114H33.5339L36.5229 0ZM38.7032 5.451L37.4498 11.3243H37.561C37.7711 11.3243 37.8956 11.2155 37.9345 10.998L39.0528 5.77729C39.0917 5.55976 39.0122 5.451 38.8144 5.451H38.7032Z" fill="#454545"/>
<path d="M48.2223 14.0114H42.2333C41.8996 14.0114 41.6532 13.909 41.4942 13.7043C41.3353 13.4867 41.2943 13.2052 41.3713 12.8597L43.5309 2.76389H46.8684L45.095 10.998C45.0561 11.2155 45.1417 11.3243 45.3519 11.3243H45.4631L47.2948 2.76389H50.6323L48.2223 14.0114Z" fill="#454545"/>
<path d="M50.7073 9.84634C50.3736 9.84634 50.1272 9.74398 49.9682 9.53925C49.8093 9.32172 49.7683 9.04021 49.8453 8.69473L50.8673 3.91551C50.9319 3.57002 51.0887 3.29491 51.3376 3.09018C51.599 2.87265 51.8965 2.76389 52.2303 2.76389H57.1067C57.4405 2.76389 57.6868 2.87265 57.8457 3.09018C58.0047 3.29491 58.0458 3.57002 57.9688 3.91551L57.4288 6.44907H54.0913L54.2458 5.70052C54.2716 5.55976 54.2104 5.48938 54.0621 5.48938C53.9385 5.48938 53.8575 5.55976 53.8193 5.70052L53.6458 6.50665C53.6066 6.76256 53.7045 6.89052 53.9393 6.89052H56.2199C56.5537 6.89052 56.8 6.99929 56.9589 7.21681C57.118 7.42155 57.159 7.69666 57.082 8.04214L56.0597 12.8597C55.9827 13.2052 55.8197 13.4867 55.5707 13.7043C55.3218 13.909 55.0305 14.0114 54.6967 14.0114H49.8202C49.4865 14.0114 49.2401 13.909 49.0811 13.7043C48.9222 13.4867 48.8812 13.2052 48.9582 12.8597L49.4985 10.2878H52.836L52.6815 11.0364C52.6557 11.1771 52.7169 11.2475 52.8652 11.2475C52.9888 11.2475 53.0698 11.1771 53.108 11.0364L53.2815 10.2302C53.3207 9.9743 53.2228 9.84634 52.988 9.84634H50.7073Z" fill="#454545"/>
<path d="M58.8783 1.93856L62.2931 1.55469L62.0422 2.76389H62.8024L62.0509 6.21874H61.2907L60.4609 10.1726C60.397 10.4286 60.4887 10.5565 60.7359 10.5565H61.1253L60.3923 14.0114H57.4071C57.0734 14.0114 56.827 13.909 56.668 13.7043C56.5091 13.4867 56.4681 13.2052 56.5451 12.8597L58.8783 1.93856Z" fill="#454545"/>
<path d="M63.8647 0H67.2022L66.7011 2.32243H63.3636L63.8647 0ZM63.2858 2.76389H66.6233L64.2132 14.0114H60.8757L63.2858 2.76389Z" fill="#454545"/>
<path d="M71.7978 14.0114H65.8088C65.4751 14.0114 65.2287 13.909 65.0697 13.7043C64.9108 13.4867 64.8698 13.2052 64.9468 12.8597L67.1064 2.76389H70.4439L68.6705 10.998C68.6316 11.2155 68.7172 11.3243 68.9274 11.3243H69.0386L70.8704 2.76389H74.2079L71.7978 14.0114Z" fill="#454545"/>
<path d="M77.6564 5.451C77.5946 5.451 77.5388 5.47019 77.4891 5.50858C77.4393 5.54697 77.408 5.59815 77.3951 5.66213L76.2379 11.1131C76.212 11.2539 76.2732 11.3243 76.4216 11.3243C76.5575 11.3243 76.6385 11.2539 76.6643 11.1131L77.2811 8.25327H80.6187L79.6352 12.8597C79.5582 13.2052 79.3952 13.4867 79.1462 13.7043C78.8973 13.909 78.606 14.0114 78.2722 14.0114H73.3957C73.062 14.0114 72.8156 13.909 72.6566 13.7043C72.4977 13.4867 72.4567 13.2052 72.5337 12.8597L74.4428 3.91551C74.5198 3.57002 74.6827 3.29491 74.9316 3.09018C75.1806 2.87265 75.472 2.76389 75.8058 2.76389H80.6823C81.016 2.76389 81.2623 2.87265 81.4212 3.09018C81.5803 3.29491 81.6213 3.57002 81.5443 3.91551L80.715 7.81182H77.3775L77.8216 5.66213C77.8475 5.52138 77.7986 5.451 77.675 5.451H77.6564Z" fill="#454545"/>
<path d="M32.537 27.51C31.9806 27.51 31.5685 27.3438 31.3006 27.0116C31.0327 26.6586 30.9606 26.2018 31.0842 25.6411L32.7225 17.8855C32.8255 17.3248 33.0831 16.8784 33.4952 16.5462C33.928 16.1931 34.4225 16.0166 34.9789 16.0166H43.1084C43.6648 16.0166 44.0769 16.1931 44.3448 16.5462C44.6127 16.8784 44.6848 17.3248 44.5612 17.8855L43.6957 21.9969H38.1318L38.3791 20.7822C38.4203 20.5538 38.3173 20.4396 38.07 20.4396C37.8639 20.4396 37.73 20.5538 37.6681 20.7822L37.3899 22.0904C37.3281 22.5057 37.493 22.7133 37.8845 22.7133H41.6865C42.2429 22.7133 42.655 22.8898 42.9229 23.2428C43.1908 23.575 43.263 24.0215 43.1393 24.5821L41.5011 32.4001C41.3774 32.9607 41.1095 33.4176 40.6974 33.7706C40.2852 34.1028 39.801 34.2689 39.2446 34.2689H31.1151C30.5587 34.2689 30.1466 34.1028 29.8787 33.7706C29.6108 33.4176 29.5387 32.9607 29.6623 32.4001L30.5278 28.2264H36.0917L35.8444 29.4411C35.8032 29.6695 35.9062 29.7837 36.1535 29.7837C36.3596 29.7837 36.4935 29.6695 36.5554 29.4411L36.8336 28.1329C36.8954 27.7176 36.7305 27.51 36.339 27.51H32.537Z" fill="#111111"/>
<path d="M55.1073 27.8214L54.149 32.4001C54.0254 32.9607 53.7575 33.4176 53.3453 33.7706C52.9332 34.1028 52.4489 34.2689 51.8926 34.2689H43.7631C43.2067 34.2689 42.7945 34.1028 42.5267 33.7706C42.2588 33.4176 42.1866 32.9607 42.3103 32.4001L45.3704 17.8855C45.4941 17.3248 45.762 16.8784 46.1741 16.5462C46.5862 16.1931 47.0705 16.0166 47.6269 16.0166H55.7564C56.3128 16.0166 56.7146 16.1931 56.9619 16.5462C57.2298 16.8784 57.3122 17.3248 57.2092 17.8855L55.2618 27.1051H48.987L48.4615 29.5657C48.4203 29.7941 48.5233 29.9083 48.7706 29.9083C48.9973 29.9083 49.1312 29.7941 49.1724 29.5657L49.5434 27.8214H55.1073ZM50.7489 20.3773C50.6458 20.3773 50.5531 20.4084 50.4707 20.4707C50.3882 20.533 50.3367 20.6161 50.3161 20.7199L49.9143 22.7444H50.6252L51.0271 20.7199C51.0683 20.6161 51.058 20.533 50.9961 20.4707C50.9549 20.4084 50.8828 20.3773 50.7798 20.3773H50.7489Z" fill="#111111"/>
<path d="M58.4202 16.0166H63.9841L63.7059 17.2314C63.8914 16.8576 64.1593 16.5669 64.5096 16.3593C64.8805 16.1309 65.2927 16.0166 65.746 16.0166H66.3333L65.1278 21.6231H62.7786L60.1203 34.2689H54.5564L58.4202 16.0166Z" fill="#111111"/>
<path d="M68.6895 34.9853L68.6277 35.2968C68.5865 35.5252 68.6792 35.6394 68.9059 35.6394C69.1326 35.6394 69.2768 35.5252 69.3387 35.2968L69.555 34.2689H65.1348C64.5784 34.2689 64.1663 34.1028 63.8984 33.7706C63.6305 33.4176 63.5584 32.9607 63.682 32.4001L66.7422 17.8855C66.8452 17.3248 67.1028 16.8784 67.5149 16.5462C67.9477 16.1931 68.4423 16.0166 68.9986 16.0166H78.9828L74.3153 38.1312C74.1916 38.6918 73.9237 39.1383 73.5116 39.4705C73.0994 39.8235 72.6152 40 72.0588 40H63.9293C63.3729 40 62.9608 39.8235 62.6929 39.4705C62.425 39.1383 62.3529 38.6918 62.4765 38.1312L63.1256 34.9853H68.6895ZM72.3988 20.7199C72.44 20.5953 72.4297 20.5122 72.3679 20.4707C72.3061 20.4084 72.2339 20.3773 72.1515 20.3773C72.0485 20.3773 71.9558 20.4084 71.8733 20.4707C71.7909 20.5122 71.7291 20.5953 71.6879 20.7199L69.8332 29.5345C69.8126 29.6384 69.8332 29.7214 69.8951 29.7837C69.9569 29.846 70.0393 29.8772 70.1423 29.8772C70.2248 29.8772 70.3072 29.846 70.3896 29.7837C70.4721 29.7214 70.5236 29.6384 70.5442 29.5345L72.3988 20.7199Z" fill="#111111"/>
<path d="M79.792 16.0166H85.3559L81.4921 34.2689H75.9282L79.792 16.0166Z" fill="#111111"/>
<path d="M94.1362 34.2689H84.1521C83.5957 34.2689 83.1835 34.1028 82.9156 33.7706C82.6477 33.4176 82.5756 32.9607 82.6993 32.4001L86.1612 16.0166H91.7251L88.8814 29.3788C88.8196 29.7318 88.9638 29.9083 89.3141 29.9083H89.4996L92.4361 16.0166H98L94.1362 34.2689Z" fill="#111111"/>
<path d="M86.5505 10.243H80.9866L80.1829 14.0118H85.7468L86.5505 10.243Z" fill="#111111"/>
</svg>
