<svg width="12" height="13" viewBox="0 0 12 13" fill="none" xmlns="http://www.w3.org/2000/svg">
<path d="M3.29145 5.06364C3.48037 4.80837 3.63635 4.5826 3.90242 4.39246C4.05595 4.28275 4.22581 4.15638 4.39896 4.07313C4.5922 3.98022 4.82858 3.90499 5.05311 3.93736C5.44171 3.99339 5.78096 4.17376 6.07211 4.40585C6.32334 4.60612 6.42319 4.89365 6.46718 5.18315C6.56157 5.8042 6.20302 6.34602 5.50216 6.49586C5.32745 6.53322 5.16504 6.54367 4.98618 6.54367C4.93577 6.54367 4.80598 6.50233 4.9171 6.5102C5.04605 6.51934 5.18958 6.52724 5.31326 6.56183C5.43128 6.59485 5.57981 6.65286 5.70078 6.66414C5.77099 6.67068 5.8443 6.73713 5.8994 6.77122C6.02969 6.85182 6.16412 6.93402 6.29879 7.00833C6.52498 7.13313 6.57613 7.45828 6.6237 7.66899C6.69321 7.9768 6.75 8.28141 6.75 8.59544C6.75 8.87561 6.52732 9.14263 6.32038 9.34119C6.04958 9.60103 5.71634 9.82642 5.31973 9.89094C4.88226 9.96211 4.40648 9.93141 3.98014 9.83071C3.64843 9.75236 3.36534 9.41318 3.2256 9.15189C3.15391 9.01782 3 8.84806 3 8.69487" stroke="black" stroke-width="0.981081" stroke-linecap="round"/>
<path d="M8.99313 9.84069C9.32214 9.60466 8.77123 9.75156 8.95272 9.93305C9.10873 10.0891 9.33523 9.84069 9.14898 9.84069" stroke="black" stroke-width="0.981081" stroke-linecap="round"/>
</svg>
