<svg width="12" height="13" viewBox="0 0 12 13" fill="none" xmlns="http://www.w3.org/2000/svg">
<path d="M3 5.56596C3.13548 5.14596 3.25884 4.72712 3.52044 4.35804C3.61487 4.22482 3.69615 4.10245 3.83679 4.01292C4.15008 3.81347 4.49538 3.79395 4.86238 3.73132C5.06967 3.69595 5.30364 3.68886 5.51446 3.70667C5.62126 3.71569 5.74265 3.78314 5.84204 3.8176C6.03614 3.88489 6.2219 3.95178 6.40228 4.04705C6.57285 4.13713 6.67065 4.27469 6.71047 4.45095C6.73646 4.56602 6.72193 4.68187 6.73292 4.79797C6.74568 4.93284 6.76675 5.07688 6.72679 5.20946C6.63941 5.4994 6.55064 5.76443 6.38799 6.02675C6.31277 6.14808 6.25085 6.26845 6.15941 6.38135C6.04499 6.5226 5.89872 6.64631 5.76448 6.77103C5.50768 7.00963 5.25786 7.24981 4.98994 7.47834C4.65705 7.76227 4.3006 8.02416 3.95721 8.29657C3.65262 8.53821 3.3043 8.76519 3.09184 9.08921C2.9761 9.26573 2.95346 9.41712 3.12858 9.55949C3.28057 9.68305 3.39598 9.69602 3.59188 9.69602C3.78906 9.69602 3.98663 9.69938 4.18376 9.69507C4.41165 9.69009 4.63332 9.64478 4.85932 9.62396C5.08675 9.603 5.30236 9.56051 5.53283 9.55949C5.75222 9.55852 5.97165 9.55949 6.19104 9.55949C6.29071 9.55949 6.39038 9.55949 6.49004 9.55949" stroke="black" stroke-width="0.981081" stroke-linecap="round"/>
<path d="M8.55114 9.40502C9.28893 9.62021 8.60057 9.12276 8.46327 9.3189C8.32468 9.51689 8.8926 9.74787 8.83409 9.42611C8.81596 9.32636 8.50809 9.65394 8.78664 9.65809C8.85122 9.65906 9.08558 9.60709 9.02214 9.49289C8.97529 9.40856 8.85702 9.36989 8.77258 9.34175" stroke="black" stroke-width="0.981081" stroke-linecap="round"/>
</svg>
