<svg width="54" height="28" viewBox="0 0 54 28" fill="none" xmlns="http://www.w3.org/2000/svg">
<path d="M2.37733 16.5348C1.74135 12.5645 1.87465 7.96218 3.04283 3.81175C3.14321 3.45509 3.44146 3.18993 3.80625 3.12503C8.61651 2.26914 12.0831 2.36228 16.3067 2.26125C25.773 2.03482 35.2667 1.80888 44.7227 2.26125C49.6768 2.49825 49.9323 7.74405 50.8517 10.9107C51.6663 13.7165 51.966 16.146 51.966 19.0271C51.966 20.148 52.2579 21.1499 51.1303 21.8924C50.3047 22.4361 47.3 23.3487 47.3 23.3487C47.3 23.3487 41.6426 24.1053 39.9094 24.4646C29.9493 26.5293 18.3324 26.4087 8.33602 24.7178C6.32495 24.3777 5.45145 23.5396 4.23458 22.2123C2.57703 20.4043 2.54612 17.5886 2.37733 16.5348Z" stroke="black" stroke-width="3" stroke-linecap="round"/>
</svg>
