<svg width="54" height="24" viewBox="0 0 54 24" fill="none" xmlns="http://www.w3.org/2000/svg">
<path d="M7.24907 7C6.25814 9.2013 5.26914 11.4028 4.25462 13.6002C4.22086 13.6733 3.97504 14.0639 4.00207 14.2438C4.01264 14.3141 4.21882 14.1794 4.29069 14.1238C4.8358 13.7018 5.36391 13.2727 5.91419 12.8529C7.61974 11.5516 9.24258 10.3685 11.4702 9.37278C13.1119 8.63891 14.8101 7.96489 16.3046 7.12C17.0579 6.69415 16.1509 7.88796 16.1062 7.96002C15.0615 9.64186 13.5264 11.1834 12.4713 12.8583C11.8003 13.9237 9.11497 16.9075 10.2796 16.0111C12.932 13.9696 15.8961 12.1209 18.812 10.2183C20.2742 9.26413 21.7698 8.27675 23.5652 7.54547C24.255 7.26455 25.4324 6.55577 25.1617 7.48001C24.1275 11.0107 20.3533 13.8605 18.3971 17.173C18.3478 17.2565 17.681 18.4401 18.1085 17.8221C19.4522 15.8796 21.2378 14.0882 23.5382 12.5038C25.7022 11.0133 28.1568 9.70013 30.6816 8.44003C31.3422 8.11033 33.3304 6.69194 33.3153 7.89457C33.2818 10.5464 31.0368 13.2544 29.1032 15.5693C28.5856 16.1889 26.9724 17.9525 27.8585 17.5112C28.365 17.2589 28.7705 16.6576 29.0761 16.3384C30.0769 15.2933 31.0526 14.2389 32.2329 13.262C34.5508 11.3434 37.3545 9.78189 40.3955 8.29821C41.1677 7.92151 41.9137 7.50855 42.7135 7.15273C43.298 6.89271 43.1184 7.39786 43.0923 7.61092C42.8995 9.18563 41.9892 10.5755 40.9998 12.0183C39.9505 13.5485 39.0179 15.0809 37.816 16.573C37.5089 16.9542 36.7746 18.1439 36.9591 17.7348C37.0339 17.5689 37.228 17.4205 37.3921 17.2875C38.3913 16.4772 39.468 15.6944 40.5308 14.9147C42.2251 13.6718 44.0349 12.4868 46.0056 11.4019C46.2352 11.2755 47.9889 10.1528 47.9989 10.5455C48.0367 12.0291 47.0714 13.6488 47.9989 15.0511" stroke="#3CB44E" stroke-width="6" stroke-linecap="round"/>
<path d="M2.37733 13.6899C1.75075 11.0821 1.87088 8.06537 2.99172 5.33069C3.12243 5.01176 3.42127 4.7959 3.76353 4.7551C8.59601 4.17906 12.0707 4.24172 16.3067 4.17417C25.773 4.02321 35.2667 3.87259 44.7227 4.17417C49.6768 4.33216 49.9323 7.82937 50.8517 9.94047C51.6663 11.811 51.966 13.4307 51.966 15.3514C51.966 16.0987 52.2579 16.7666 51.1303 17.2616C50.3047 17.6241 47.3 18.2325 47.3 18.2325C47.3 18.2325 41.6426 18.7369 39.9094 18.9764C29.9493 20.3529 18.3324 20.2724 8.33602 19.1452C6.32495 18.9184 5.45145 18.3597 4.23458 17.4749C2.57703 16.2695 2.54612 14.3924 2.37733 13.6899Z" stroke="black" stroke-width="3" stroke-linecap="round"/>
</svg>
