<svg width="40" height="40" viewBox="0 0 40 40" fill="none" xmlns="http://www.w3.org/2000/svg">
<path d="M6.66683 20.0002C6.66683 12.6364 12.6364 6.66683 20.0002 6.66683C27.364 6.66683 33.3335 12.6364 33.3335 20.0002C33.3335 27.364 27.364 33.3335 20.0002 33.3335C12.6364 33.3335 6.66683 27.364 6.66683 20.0002ZM20.0002 3.3335C10.7954 3.3335 3.3335 10.7954 3.3335 20.0002C3.3335 29.2048 10.7954 36.6668 20.0002 36.6668C29.2048 36.6668 36.6668 29.2048 36.6668 20.0002C36.6668 10.7954 29.2048 3.3335 20.0002 3.3335ZM29.0953 15.762L26.7383 13.405L18.3335 21.8098L13.6787 17.155L11.3216 19.512L18.3335 26.5238L29.0953 15.762Z" fill="#FFFDFF"/>
</svg>
