<svg width="21" height="20" viewBox="0 0 21 20" fill="none" xmlns="http://www.w3.org/2000/svg">
<path d="M8.28549 15.6517L6.67561 15.2203L7.33184 12.7713C6.34091 12.4063 5.43043 11.875 4.63422 11.2113L2.83978 13.0057L1.66127 11.8272L3.45571 10.0328C2.46309 8.84208 1.7667 7.39571 1.47974 5.80698L3.1198 5.50879C3.75233 9.01066 6.81601 11.6669 10.5001 11.6669C14.1842 11.6669 17.2479 9.01066 17.8804 5.50879L19.5205 5.80698C19.2335 7.39571 18.5371 8.84208 17.5445 10.0328L19.3389 11.8272L18.1604 13.0057L16.366 11.2113C15.5698 11.875 14.6593 12.4063 13.6683 12.7713L14.3246 15.2203L12.7148 15.6517L12.0583 13.2017C11.5518 13.2884 11.0313 13.3336 10.5001 13.3336C9.969 13.3336 9.44834 13.2884 8.942 13.2017L8.28549 15.6517Z" fill="#FFFDFF"/>
</svg>
