<svg width="21" height="20" viewBox="0 0 21 20" fill="none" xmlns="http://www.w3.org/2000/svg">
<path d="M10.5004 2.5C14.9938 2.5 18.7322 5.73313 19.5159 10C18.7322 14.2668 14.9938 17.5 10.5004 17.5C6.00693 17.5 2.26862 14.2668 1.48486 10C2.26862 5.73313 6.00693 2.5 10.5004 2.5ZM10.5004 15.8333C14.0301 15.8333 17.0504 13.3767 17.8149 10C17.0504 6.62336 14.0301 4.16667 10.5004 4.16667C6.97066 4.16667 3.95035 6.62336 3.18581 10C3.95035 13.3767 6.97066 15.8333 10.5004 15.8333ZM10.5004 13.75C8.42931 13.75 6.75038 12.0711 6.75038 10C6.75038 7.92893 8.42931 6.25 10.5004 6.25C12.5714 6.25 14.2504 7.92893 14.2504 10C14.2504 12.0711 12.5714 13.75 10.5004 13.75ZM10.5004 12.0833C11.651 12.0833 12.5837 11.1506 12.5837 10C12.5837 8.84942 11.651 7.91667 10.5004 7.91667C9.34983 7.91667 8.41705 8.84942 8.41705 10C8.41705 11.1506 9.34983 12.0833 10.5004 12.0833Z" fill="#FFFDFF"/>
</svg>
