<svg width="48" height="48" viewBox="0 0 48 48" fill="none" xmlns="http://www.w3.org/2000/svg">
<path d="M0.96 8.63989C0.43008 8.63989 0 9.06997 0 9.59989V23.1505C0 29.0651 4.49567 34.2061 10.4006 34.5411C16.0617 34.8618 20.878 30.8892 21.885 25.5843C22.4322 26.3235 22.9884 27.0104 23.55 27.6411L20.1619 42.0205C20.0956 42.3066 20.1623 42.6048 20.3438 42.8361C20.5271 43.0646 20.8037 43.1999 21.0975 43.1999H26.0119C26.4573 43.1999 26.841 42.8997 26.9438 42.4668C27.5399 39.9506 28.4745 36.0077 29.3213 32.4336L30.195 32.9399C32.2734 34.0161 34.3824 34.5599 36.48 34.5599C43.3843 34.5599 48.889 28.4553 47.88 21.3599C47.2118 16.6597 43.5975 12.7855 38.9569 11.7861C33.553 10.6217 28.3443 13.3911 26.1056 17.9943C26.1056 17.9943 25.8572 18.5457 25.6575 19.0968C24.0735 16.3646 23.1433 13.5302 22.6556 11.4768C22.478 10.728 22.212 9.37225 22.1813 9.28489C22.0478 8.89801 21.6855 8.63989 21.2756 8.63989H16.32C15.7901 8.63989 15.36 9.06997 15.36 9.59989V23.3286C15.36 25.5837 13.7157 27.6004 11.4713 27.8193C8.89653 28.0708 6.72 26.0447 6.72 23.5199V9.59989C6.72 9.06997 6.28992 8.63989 5.76 8.63989H0.96ZM36.48 18.2399C39.1267 18.2399 41.28 20.3932 41.28 23.0399C41.28 25.6866 39.1267 27.8399 36.48 27.8399C34.344 27.8399 32.365 26.5518 30.9788 25.4286C31.4847 23.2926 31.8242 21.862 31.83 21.838C32.3753 19.7193 34.2883 18.2399 36.48 18.2399Z" fill="#FFFDFF"/>
</svg>
